<svg width="1023" height="607" viewBox="0 0 1023 607" fill="none" xmlns="http://www.w3.org/2000/svg">
<g clip-path="url(#clip0_1_69)">
<mask id="mask0_1_69" style="mask-type:luminance" maskUnits="userSpaceOnUse" x="-9" y="10" width="1032" height="595">
<path d="M1022.73 10.2633H-8.73352V604.737H1022.73V10.2633Z" fill="white"/>
</mask>
<g mask="url(#mask0_1_69)">
<path d="M478.088 355.976C541.462 405.8 640.299 402.471 698.848 348.542C757.397 294.614 753.486 210.506 690.112 160.683C626.739 110.859 527.901 114.188 469.352 168.116C410.803 222.045 414.715 306.153 478.088 355.976Z" fill="#FFD700"/>
<path d="M1035.81 3.04666H-19.5112V612.903H1035.81V3.04666Z" fill="black"/>
<g opacity="0.8" filter="url(#filter0_f_1_69)">
<path d="M932.401 365.118C912.272 335.665 884.296 309.133 846.606 287.751C810.846 267.464 762.041 294.045 726.237 275.764C666.452 245.239 450.911 130.622 398.425 139.554C368.442 144.657 243.779 108.034 238.36 126.478C202.244 249.412 954.298 441.177 978.499 399.988C987.694 384.34 945.78 378.401 932.401 365.118Z" fill="#FF0000"/>
</g>
<g filter="url(#filter1_f_1_69)">
<path d="M588.582 121.03C565.394 121.036 542.491 125.382 521.496 133.76C500.501 142.137 481.929 154.341 467.093 169.506C495.633 148.817 531.883 137.429 569.374 137.375C590.142 137.375 610.706 140.856 629.893 147.619C649.08 154.382 666.514 164.294 681.199 176.791C695.884 189.287 707.533 204.123 715.48 220.45C723.428 236.778 727.518 254.277 727.518 271.95C727.503 303.412 714.534 333.875 690.866 358.045C708.342 345.434 722.389 329.741 732.034 312.053C741.679 294.365 746.692 275.105 746.726 255.605C746.726 237.933 742.635 220.433 734.688 204.105C726.74 187.778 715.091 172.942 700.406 160.446C685.721 147.949 668.288 138.037 649.101 131.274C629.914 124.511 609.349 121.03 588.582 121.03Z" fill="white"/>
</g>
<g opacity="0.391" filter="url(#filter2_f_1_69)">
<path d="M346.095 422.406C344.384 424.491 341.634 425.923 338.692 426.261C335.749 426.598 332.659 425.835 330.372 424.208C329.61 423.666 328.938 423.037 328.275 422.406C324.112 418.444 320.046 414.234 314.648 411.593C314.204 411.375 313.748 411.167 313.359 410.882C312.969 410.597 312.645 410.223 312.552 409.79C312.488 409.493 312.536 409.188 312.575 408.888C312.616 408.588 312.647 408.279 312.552 407.988C312.429 407.613 312.103 407.305 311.725 407.089C311.346 406.874 310.914 406.74 310.486 406.611C310.057 406.483 309.623 406.355 309.237 406.15C308.851 405.945 308.51 405.653 308.359 405.285C308.242 404.999 308.246 404.688 308.279 404.387C308.311 404.086 308.37 403.785 308.359 403.483C308.34 402.968 308.114 402.468 307.767 402.048C307.42 401.629 306.956 401.288 306.447 401.017C305.429 400.474 304.251 400.21 303.118 399.878C298.954 398.658 295.256 396.452 292.027 393.884C288.798 391.315 286 388.378 283.202 385.46C281.94 384.144 280.652 382.811 279.009 381.856C277.065 380.725 274.733 380.188 272.719 379.152C270.227 377.871 268.343 375.898 266.32 374.107C265.308 373.211 264.246 372.35 263.05 371.641C261.855 370.932 260.518 370.377 259.092 370.141C258.057 369.97 256.983 369.97 255.948 370.141C254.655 369.379 253.24 368.771 251.755 368.339C247.062 366.974 241.917 367.42 237.079 368.339C228.265 370.013 219.939 373.173 211.319 375.476C202.699 377.78 193.429 379.221 184.668 377.35C179.032 376.147 173.906 373.636 168.945 371.042C163.418 368.153 157.877 365.08 151.62 363.673C148.491 362.97 145.203 362.701 142.006 363.121C138.809 363.542 135.706 364.674 133.305 366.537C132.938 366.821 132.588 367.122 132.257 367.438C131.549 367.723 130.85 368.024 130.16 368.339C119.959 372.999 112.018 380.733 101.858 385.46C100.063 386.295 98.1878 387.043 96.617 388.164C94.9739 389.336 93.7369 390.863 92.3332 392.246C90.9295 393.629 89.2526 394.922 87.1829 395.373C85.4802 395.743 83.6913 395.507 81.9418 395.373C72.5441 394.652 62.7483 397.155 55.7361 402.582C54.4236 403.597 53.1767 404.754 52.5914 406.186C52.0016 407.629 52.1402 409.218 52.4926 410.718C52.845 412.217 53.4029 413.681 53.6397 415.197C54.1519 418.478 53.1376 421.828 53.6397 425.109C54.0038 427.49 55.1665 429.753 56.7981 431.702C58.4297 433.65 60.52 435.293 62.8038 436.675C67.3714 439.438 72.6596 441.154 77.7489 443.132C81.8005 444.707 85.8901 446.493 90.3276 446.736C92.4207 446.851 94.5244 446.615 96.617 446.736C101.401 447.015 105.857 449.184 109.196 452.143C110.229 453.059 111.176 454.056 112.34 454.846C113.696 455.767 115.3 456.376 116.921 456.891C118.542 457.405 120.201 457.837 121.774 458.451C125.463 459.891 128.662 462.424 130.16 465.66C131.337 468.2 131.426 471.004 131.425 473.739C131.425 476.473 131.358 479.257 132.257 481.88C133.054 484.207 134.602 486.33 136.622 488.024C138.642 489.719 141.124 490.989 143.787 491.792C144.83 492.107 145.901 492.352 146.932 492.693C149.58 493.571 151.922 495.09 153.713 496.983C155.503 498.876 156.747 501.136 157.414 503.507C158.62 507.795 157.953 512.281 157.578 516.681C157.203 521.08 157.18 525.709 159.511 529.639C160.754 531.736 162.604 533.517 164.507 535.209C166.41 536.901 168.397 538.541 169.993 540.453C171.463 542.214 172.585 544.185 174.186 545.86C176.084 547.845 178.576 549.33 180.918 550.927C183.26 552.525 185.54 554.329 186.765 556.673C187.947 558.937 188.04 561.503 188.861 563.882C190.013 567.217 192.546 570.059 195.174 572.704C197.803 575.349 200.611 577.921 202.488 581.003C203.077 581.97 203.601 583.016 204.584 583.707C205.317 584.221 206.239 584.489 207.15 584.709C208.061 584.93 208.995 585.118 209.826 585.509C210.697 585.919 211.414 586.534 212.064 587.18C212.715 587.825 213.314 588.511 214.018 589.113C215.579 590.446 217.591 591.311 219.609 592.064C221.627 592.817 223.705 593.488 225.549 594.52C227.425 595.57 229.004 596.965 230.79 598.125C235.869 601.422 242.328 602.657 248.61 603.531C254.229 604.313 259.912 604.88 265.382 606.235C267.488 606.756 269.575 607.396 271.755 607.583C272.846 607.676 273.956 607.654 275.025 607.446C276.094 607.238 277.121 606.84 277.96 606.235C278.645 605.741 279.19 605.121 279.832 604.588C280.153 604.321 280.501 604.074 280.889 603.884C281.277 603.694 281.708 603.561 282.153 603.531C282.503 603.508 282.854 603.548 283.204 603.574C283.553 603.6 283.911 603.611 284.25 603.531C284.73 603.418 285.138 603.125 285.401 602.762C285.665 602.399 285.79 601.97 285.815 601.543C285.866 600.688 285.535 599.857 285.298 599.026C284.626 596.672 284.701 594.186 285.298 591.817C286.121 588.549 287.899 585.53 289.495 582.481C291.091 579.432 292.54 576.235 292.636 572.893C292.733 569.484 291.415 566.159 291.179 562.755C291.061 561.053 291.223 559.311 291.946 557.724C292.668 556.136 293.994 554.71 295.78 553.97C296.486 553.677 297.263 553.488 297.877 553.069C298.497 552.645 298.891 552.023 299.178 551.388C299.464 550.754 299.66 550.089 299.973 549.464C300.904 547.607 302.818 546.225 304.905 545.29C306.991 544.355 309.276 543.807 311.504 543.156C313.917 542.451 316.31 541.613 318.841 541.354C323.093 540.919 327.303 542.145 331.42 543.156C334.69 543.96 338.027 544.64 341.424 544.776C344.821 544.911 348.303 544.479 351.336 543.156C353.154 542.363 354.774 541.269 356.577 540.453C358.453 539.604 360.495 539.069 362.489 538.45C364.483 537.83 366.473 537.107 368.108 535.947C369.634 534.865 370.793 533.444 372.301 532.343C374.244 530.924 376.665 530.105 378.959 529.149C381.253 528.193 383.551 527.004 384.88 525.134C385.345 524.479 385.676 523.759 386.131 523.099C386.586 522.439 387.198 521.819 388.024 521.529C388.544 521.347 389.112 521.307 389.664 521.218C389.939 521.174 390.214 521.117 390.472 521.024C390.731 520.932 390.976 520.803 391.169 520.628C391.362 520.454 391.5 520.239 391.597 520.014C391.694 519.788 391.753 519.552 391.801 519.315C391.897 518.842 391.959 518.351 392.217 517.925C392.422 517.587 392.741 517.307 393.098 517.082C393.455 516.856 393.852 516.681 394.249 516.512C394.647 516.344 395.05 516.182 395.425 515.979C395.8 515.776 396.151 515.53 396.41 515.221C396.693 514.885 396.859 514.484 396.965 514.079C397.072 513.673 397.123 513.259 397.199 512.848C397.275 512.438 397.377 512.027 397.578 511.649C397.78 511.271 398.089 510.926 398.507 510.716C398.849 510.543 399.245 510.47 399.622 510.363C399.811 510.309 399.996 510.245 400.167 510.158C400.337 510.07 400.492 509.956 400.603 509.815C400.805 509.558 400.847 509.231 400.812 508.923C400.778 508.615 400.673 508.316 400.603 508.013C400.411 507.179 400.485 506.312 400.693 505.481C400.902 504.65 401.242 503.848 401.586 503.051C401.931 502.254 402.281 501.457 402.511 500.63C402.741 499.803 402.848 498.941 402.699 498.1C402.522 497.098 401.989 496.167 401.383 495.297C400.777 494.427 400.089 493.598 399.555 492.693C398.34 490.638 397.971 488.271 398.11 485.969C398.249 483.666 398.873 481.407 399.555 479.177C399.922 477.975 400.312 476.769 400.955 475.656C401.597 474.543 402.515 473.518 403.748 472.869C404.416 472.517 405.158 472.284 405.884 472.031C406.611 471.778 407.337 471.497 407.941 471.067C408.73 470.503 409.261 469.719 409.705 468.924C410.149 468.129 410.526 467.301 411.085 466.561C412.341 464.9 414.406 463.828 416.486 462.976C418.566 462.125 420.758 461.424 422.616 460.253C424.611 458.995 426.118 457.261 427.857 455.748C432.776 451.467 439.481 449.012 444.629 444.934C448.451 441.906 451.307 438.067 455.111 435.022C457.409 433.182 460.023 431.657 462.362 429.856C464.701 428.055 466.811 425.899 467.69 423.307C468.43 421.122 468.244 418.785 467.831 416.537C467.417 414.289 466.782 412.063 466.641 409.79C466.481 407.203 466.965 404.621 467.112 402.033C467.26 399.445 467.038 396.745 465.593 394.471C464.759 393.158 463.551 392.047 462.255 391.049C460.959 390.05 459.563 389.151 458.256 388.164C456.142 386.568 454.265 384.747 452.106 383.197C449.947 381.646 447.421 380.346 444.629 380.054C443.24 379.908 441.834 380.016 440.436 380.054C435.577 380.184 430.74 379.459 425.879 379.416C423.449 379.395 421.004 379.547 418.646 380.054C416.289 380.561 414.016 381.435 412.134 382.757C409.711 384.458 408.046 386.806 406.412 389.098C404.777 391.39 403.073 393.724 400.603 395.373C397.894 397.18 394.316 398.029 390.931 397.555C387.547 397.081 384.424 395.257 382.783 392.669C382.409 392.079 382.111 391.456 381.735 390.867C380.111 388.319 377.052 386.543 373.742 385.958C370.432 385.374 366.916 385.927 363.915 387.262C360.596 388.739 357.831 391.216 356.549 394.235C355.909 395.744 355.641 397.373 355.813 398.973C355.985 400.572 356.6 402.14 357.626 403.483C358.786 405.001 360.429 406.196 362.113 407.292C363.798 408.388 365.558 409.414 367.06 410.692C368.961 412.31 370.447 414.408 370.639 416.702C370.735 417.849 370.497 419.025 369.886 420.048C369.274 421.071 368.279 421.933 367.06 422.406C366.052 422.798 364.925 422.919 363.915 423.307C362.763 423.75 361.825 424.513 360.77 425.109C358.444 426.425 355.497 426.9 352.774 426.399C350.052 425.897 347.59 424.426 346.095 422.406Z" fill="#FF0000"/>
</g>
<g opacity="0.5" filter="url(#filter3_f_1_69)">
<path d="M933.852 39.9286C932.142 42.0139 929.391 43.4458 926.449 43.7831C923.506 44.1203 920.416 43.358 918.129 41.7308C917.367 41.1886 916.696 40.5596 916.033 39.9286C911.869 35.9668 907.803 31.7562 902.406 29.1152C901.961 28.8977 901.505 28.6896 901.116 28.4046C900.726 28.1197 900.402 27.7453 900.309 27.3129C900.245 27.0159 900.293 26.7107 900.333 26.4106C900.373 26.1105 900.404 25.8014 900.309 25.5107C900.186 25.135 899.861 24.8272 899.482 24.6118C899.104 24.3965 898.671 24.2627 898.243 24.1338C897.814 24.005 897.381 23.8774 896.994 23.6726C896.608 23.4678 896.267 23.1755 896.116 22.8073C895.999 22.5219 896.004 22.2107 896.036 21.9094C896.068 21.6081 896.127 21.3075 896.116 21.0051C896.098 20.4907 895.871 19.9902 895.524 19.5708C895.177 19.1515 894.713 18.8103 894.204 18.5391C893.187 17.9967 892.008 17.7327 890.875 17.4006C886.711 16.1803 883.013 13.9746 879.784 11.4062C876.555 8.8377 873.757 5.9009 870.959 2.98268C869.697 1.66674 868.409 0.333667 866.766 -0.621803C864.822 -1.75207 862.491 -2.28983 860.476 -3.32516C857.984 -4.60649 856.1 -6.57966 854.077 -8.37089C853.065 -9.26651 852.003 -10.1279 850.808 -10.8368C849.612 -11.5457 848.276 -12.1007 846.849 -12.3364C845.814 -12.5075 844.74 -12.5075 843.705 -12.3364C842.412 -13.0984 840.997 -13.7067 839.512 -14.1386C834.819 -15.5034 829.674 -15.057 824.837 -14.1386C816.022 -12.465 807.696 -9.30478 799.076 -7.00139C790.456 -4.69801 781.186 -3.2567 772.425 -5.1274C766.79 -6.33081 761.663 -8.84137 756.702 -11.4352C751.176 -14.3244 745.635 -17.3974 739.377 -18.8044C736.248 -19.508 732.96 -19.7764 729.764 -19.3561C726.567 -18.9358 723.463 -17.8035 721.062 -15.9408C720.695 -15.6561 720.345 -15.3552 720.014 -15.0397C719.307 -14.7543 718.608 -14.4538 717.918 -14.1386C707.716 -9.47821 699.775 -1.7446 689.615 2.98268C687.82 3.81795 685.945 4.56553 684.374 5.68604C682.731 6.858 681.494 8.38547 680.09 9.76834C678.687 11.1512 677.01 12.4445 674.94 12.895C673.237 13.2656 671.449 13.0291 669.699 12.895C660.301 12.1749 650.506 14.6773 643.493 20.104C642.181 21.1197 640.934 22.2762 640.349 23.7084C639.759 25.1515 639.898 26.7409 640.25 28.2402C640.602 29.7395 641.16 31.2037 641.397 32.7196C641.909 36.0001 640.895 39.3503 641.397 42.632C641.761 45.0122 642.924 47.2756 644.555 49.224C646.187 51.1724 648.277 52.8158 650.561 54.1975C655.129 56.9608 660.417 58.6764 665.506 60.6544C669.558 62.229 673.647 64.0159 678.085 64.2588C680.178 64.3735 682.282 64.1371 684.374 64.2588C689.158 64.5372 693.615 66.7068 696.953 69.6656C697.986 70.5812 698.933 71.5782 700.098 72.3689C701.453 73.2896 703.058 73.8987 704.678 74.4133C706.299 74.9279 707.959 75.3591 709.532 75.9734C713.22 77.4139 716.419 79.9465 717.918 83.1823C719.094 85.7228 719.183 88.5267 719.183 91.2611C719.182 93.9955 719.115 96.7794 720.014 99.4025C720.811 101.73 722.359 103.852 724.379 105.547C726.399 107.241 728.881 108.511 731.544 109.315C732.587 109.629 733.658 109.874 734.689 110.216C737.337 111.094 739.679 112.612 741.47 114.505C743.261 116.398 744.504 118.658 745.171 121.029C746.378 125.317 745.71 129.804 745.335 134.203C744.96 138.603 744.937 143.232 747.268 147.162C748.511 149.259 750.361 151.039 752.264 152.731C754.167 154.423 756.154 156.063 757.75 157.975C759.22 159.736 760.342 161.708 761.943 163.382C763.842 165.367 766.334 166.852 768.675 168.45C771.017 170.047 773.298 171.851 774.522 174.195C775.704 176.46 775.797 179.025 776.618 181.404C777.77 184.74 780.303 187.581 782.931 190.227C785.56 192.872 788.368 195.444 790.245 198.526C790.834 199.493 791.359 200.538 792.342 201.229C793.075 201.744 793.997 202.011 794.908 202.232C795.819 202.452 796.753 202.641 797.583 203.031C798.454 203.441 799.171 204.056 799.822 204.702C800.472 205.348 801.071 206.034 801.776 206.636C803.336 207.969 805.348 208.834 807.367 209.587C809.385 210.34 811.463 211.01 813.306 212.043C815.182 213.093 816.761 214.487 818.547 215.647C823.626 218.944 830.085 220.179 836.367 221.054C841.986 221.836 847.669 222.403 853.139 223.757C855.245 224.278 857.332 224.919 859.513 225.106C860.603 225.199 861.713 225.176 862.782 224.969C863.851 224.761 864.878 224.363 865.718 223.757C866.402 223.263 866.947 222.644 867.59 222.11C867.911 221.843 868.258 221.596 868.646 221.406C869.034 221.216 869.465 221.083 869.911 221.054C870.26 221.03 870.611 221.071 870.961 221.096C871.311 221.122 871.668 221.133 872.007 221.054C872.487 220.941 872.896 220.647 873.159 220.284C873.422 219.921 873.547 219.493 873.573 219.065C873.623 218.211 873.292 217.379 873.055 216.548C872.384 214.194 872.458 211.708 873.055 209.339C873.878 206.072 875.656 203.052 877.252 200.003C878.848 196.955 880.298 193.758 880.393 190.416C880.49 187.007 879.172 183.681 878.936 180.278C878.818 178.576 878.98 176.834 879.703 175.246C880.426 173.658 881.751 172.233 883.538 171.492C884.243 171.199 885.021 171.01 885.634 170.591C886.254 170.167 886.648 169.545 886.935 168.911C887.222 168.276 887.417 167.612 887.73 166.986C888.662 165.129 890.576 163.747 892.662 162.813C894.749 161.878 897.033 161.33 899.261 160.679C901.674 159.973 904.067 159.136 906.599 158.876C910.85 158.441 915.06 159.667 919.177 160.679C922.447 161.482 925.784 162.162 929.181 162.298C932.579 162.434 936.061 162.002 939.094 160.679C940.911 159.886 942.531 158.792 944.335 157.975C946.211 157.126 948.252 156.591 950.246 155.972C952.24 155.353 954.23 154.63 955.865 153.47C957.391 152.388 958.551 150.966 960.058 149.865C962.001 148.446 964.422 147.627 966.716 146.671C969.01 145.716 971.309 144.527 972.637 142.656C973.102 142.001 973.433 141.282 973.888 140.621C974.343 139.961 974.955 139.342 975.782 139.052C976.301 138.87 976.87 138.83 977.421 138.741C977.697 138.697 977.971 138.639 978.23 138.547C978.489 138.454 978.733 138.325 978.926 138.151C979.119 137.977 979.257 137.762 979.354 137.536C979.452 137.311 979.51 137.075 979.558 136.838C979.655 136.364 979.716 135.874 979.974 135.447C980.179 135.109 980.498 134.83 980.855 134.604C981.213 134.378 981.609 134.203 982.007 134.035C982.404 133.867 982.807 133.704 983.182 133.501C983.558 133.299 983.908 133.053 984.167 132.744C984.45 132.407 984.616 132.007 984.723 131.601C984.829 131.196 984.88 130.781 984.956 130.371C985.032 129.96 985.134 129.549 985.336 129.171C985.537 128.794 985.846 128.448 986.264 128.238C986.607 128.066 987.002 127.993 987.379 127.885C987.568 127.831 987.754 127.768 987.924 127.68C988.094 127.592 988.249 127.479 988.36 127.337C988.562 127.081 988.604 126.753 988.57 126.445C988.535 126.137 988.43 125.839 988.36 125.535C988.168 124.701 988.242 123.834 988.45 123.003C988.659 122.172 988.999 121.371 989.344 120.574C989.688 119.777 990.039 118.979 990.269 118.152C990.499 117.325 990.606 116.463 990.457 115.623C990.279 114.62 989.747 113.69 989.14 112.82C988.534 111.95 987.846 111.12 987.312 110.216C986.097 108.16 985.729 105.794 985.867 103.491C986.006 101.188 986.63 98.929 987.312 96.6991C987.68 95.4975 988.069 94.2912 988.712 93.1783C989.355 92.0655 990.273 91.0404 991.505 90.3913C992.173 90.0393 992.915 89.8064 993.642 89.5532C994.368 89.3001 995.095 89.0193 995.698 88.5891C996.488 88.0259 997.019 87.2417 997.463 86.4464C997.907 85.6511 998.283 84.823 998.843 84.0835C1000.1 82.4229 1002.16 81.3503 1004.24 80.4987C1006.32 79.6472 1008.51 78.9469 1010.37 77.7756C1012.37 76.5178 1013.88 74.7835 1015.61 73.27C1020.53 68.9891 1027.24 66.5342 1032.39 62.4566C1036.21 59.4284 1039.06 55.5897 1042.87 52.5443C1045.17 50.7047 1047.78 49.1791 1050.12 47.3784C1052.46 45.5778 1054.57 43.4211 1055.45 40.8297C1056.19 38.6447 1056 36.3074 1055.59 34.0594C1055.17 31.8113 1054.54 29.5857 1054.4 27.3129C1054.24 24.7255 1054.72 22.1438 1054.87 19.5558C1055.02 16.9677 1054.8 14.2677 1053.35 11.9939C1052.52 10.6809 1051.31 9.56945 1050.01 8.57099C1048.72 7.57252 1047.32 6.67331 1046.01 5.68604C1043.9 4.09009 1042.02 2.26985 1039.86 0.718967C1037.7 -0.831918 1035.18 -2.13143 1032.39 -2.42404C1031 -2.56957 1029.59 -2.46151 1028.19 -2.42404C1023.33 -2.29395 1018.5 -3.01885 1013.64 -3.06133C1011.21 -3.0826 1008.76 -2.93091 1006.4 -2.42348C1004.05 -1.91606 1001.77 -1.04237 999.891 0.279319C997.469 1.98014 995.804 4.32813 994.169 6.62018C992.534 8.91223 990.831 11.2464 988.36 12.895C985.652 14.7024 982.073 15.5519 978.689 15.0779C975.305 14.6039 972.182 12.7796 970.54 10.1916C970.166 9.60186 969.868 8.97846 969.492 8.3894C967.868 5.84196 964.809 4.06549 961.499 3.48081C958.189 2.89615 954.673 3.44947 951.672 4.78492C948.353 6.26192 945.588 8.73878 944.307 11.757C943.666 13.2661 943.398 14.8955 943.57 16.4952C943.742 18.0948 944.357 19.6623 945.383 21.0051C946.543 22.5233 948.186 23.7184 949.871 24.8143C951.556 25.9101 953.316 26.9361 954.817 28.214C956.718 29.8324 958.204 31.9302 958.396 34.2246C958.492 35.3718 958.255 36.5473 957.643 37.5701C957.031 38.593 956.036 39.4551 954.817 39.9286C953.809 40.32 952.682 40.4419 951.672 40.8297C950.52 41.2723 949.582 42.0356 948.528 42.632C946.202 43.9476 943.254 44.423 940.532 43.9215C937.809 43.42 935.347 41.948 933.852 39.9286Z" fill="white"/>
</g>
<g opacity="0.5" filter="url(#filter4_f_1_69)">
<path d="M795.557 439.841C793.846 441.926 791.095 443.358 788.153 443.695C785.211 444.033 782.12 443.27 779.833 441.643C779.071 441.101 778.4 440.472 777.737 439.841C773.573 435.879 769.508 431.669 764.11 429.028C763.665 428.81 763.21 428.602 762.82 428.317C762.431 428.032 762.106 427.658 762.013 427.225C761.95 426.928 761.997 426.623 762.037 426.323C762.077 426.023 762.108 425.714 762.013 425.423C761.89 425.047 761.565 424.74 761.186 424.524C760.808 424.309 760.376 424.175 759.947 424.046C759.519 423.917 759.085 423.79 758.698 423.585C758.312 423.38 757.971 423.088 757.82 422.72C757.704 422.434 757.708 422.123 757.74 421.822C757.773 421.52 757.832 421.22 757.82 420.917C757.802 420.403 757.576 419.903 757.228 419.483C756.881 419.064 756.417 418.723 755.908 418.451C754.891 417.909 753.713 417.645 752.579 417.313C748.415 416.093 744.717 413.887 741.488 411.319C738.259 408.75 735.461 405.813 732.663 402.895C731.401 401.579 730.113 400.246 728.47 399.291C726.526 398.16 724.195 397.623 722.181 396.587C719.688 395.306 717.804 393.333 715.781 391.541C714.769 390.646 713.707 389.784 712.512 389.076C711.316 388.367 709.98 387.812 708.554 387.576C707.518 387.405 706.445 387.405 705.409 387.576C704.116 386.814 702.701 386.206 701.216 385.774C696.524 384.409 691.378 384.855 686.541 385.774C677.726 387.447 669.4 390.608 660.78 392.911C652.16 395.214 642.89 396.656 634.13 394.785C628.494 393.582 623.368 391.071 618.406 388.477C612.88 385.588 607.339 382.515 601.081 381.108C597.953 380.404 594.665 380.136 591.468 380.556C588.271 380.977 585.167 382.109 582.767 383.972C582.399 384.256 582.049 384.557 581.718 384.873C581.011 385.158 580.312 385.459 579.622 385.774C569.42 390.434 561.48 398.168 551.32 402.895C549.524 403.73 547.649 404.478 546.078 405.598C544.435 406.77 543.198 408.298 541.795 409.681C540.391 411.064 538.714 412.357 536.644 412.807C534.942 413.178 533.153 412.941 531.403 412.807C522.006 412.087 512.21 414.59 505.198 420.016C503.885 421.032 502.638 422.189 502.053 423.621C501.463 425.064 501.602 426.653 501.954 428.153C502.306 429.652 502.864 431.116 503.101 432.632C503.613 435.912 502.599 439.263 503.101 442.544C503.465 444.925 504.628 447.188 506.26 449.136C507.891 451.085 509.981 452.728 512.265 454.11C516.833 456.873 522.121 458.589 527.21 460.567C531.262 462.141 535.352 463.928 539.789 464.171C541.882 464.286 543.986 464.049 546.078 464.171C550.862 464.45 555.319 466.619 558.657 469.578C559.69 470.494 560.637 471.491 561.802 472.281C563.158 473.202 564.762 473.811 566.383 474.326C568.003 474.84 569.663 475.271 571.236 475.886C574.925 477.326 578.123 479.859 579.622 483.095C580.798 485.635 580.887 488.439 580.887 491.174C580.887 493.908 580.82 496.692 581.718 499.315C582.515 501.642 584.063 503.765 586.083 505.459C588.103 507.153 590.586 508.424 593.249 509.227C594.291 509.542 595.362 509.786 596.393 510.128C599.041 511.006 601.384 512.524 603.174 514.417C604.965 516.31 606.209 518.57 606.876 520.942C608.082 525.23 607.415 529.716 607.039 534.116C606.664 538.515 606.642 543.144 608.972 547.074C610.215 549.171 612.066 550.952 613.968 552.644C615.871 554.336 617.858 555.976 619.454 557.888C620.925 559.648 622.046 561.62 623.647 563.294C625.546 565.279 628.038 566.765 630.379 568.362C632.721 569.96 635.002 571.763 636.226 574.108C637.408 576.372 637.501 578.938 638.323 581.317C639.474 584.652 642.007 587.494 644.636 590.139C647.264 592.784 650.072 595.356 651.949 598.438C652.538 599.405 653.063 600.451 654.046 601.141C654.779 601.656 655.701 601.924 656.612 602.144C657.523 602.365 658.457 602.553 659.287 602.944C660.159 603.354 660.875 603.969 661.526 604.614C662.176 605.26 662.775 605.946 663.48 606.548C665.041 607.881 667.053 608.746 669.071 609.499C671.089 610.252 673.167 610.923 675.01 611.955C676.886 613.005 678.465 614.399 680.252 615.559C685.33 618.857 691.789 620.092 698.072 620.966C703.69 621.748 709.373 622.315 714.843 623.669C716.949 624.191 719.036 624.831 721.217 625.018C722.307 625.111 723.417 625.089 724.486 624.881C725.555 624.673 726.583 624.275 727.422 623.669C728.106 623.176 728.652 622.556 729.294 622.022C729.615 621.755 729.962 621.509 730.35 621.319C730.738 621.128 731.169 620.996 731.615 620.966C731.965 620.943 732.315 620.983 732.665 621.009C733.015 621.035 733.373 621.046 733.711 620.966C734.191 620.853 734.6 620.56 734.863 620.197C735.126 619.834 735.252 619.405 735.277 618.978C735.327 618.123 734.996 617.292 734.759 616.46C734.088 614.106 734.163 611.62 734.759 609.252C735.583 605.984 737.36 602.965 738.956 599.916C740.552 596.867 742.002 593.67 742.097 590.328C742.194 586.919 740.876 583.594 740.64 580.19C740.522 578.488 740.685 576.746 741.407 575.158C742.13 573.571 743.455 572.145 745.242 571.404C745.948 571.112 746.725 570.923 747.338 570.503C747.958 570.08 748.353 569.458 748.639 568.823C748.926 568.188 749.121 567.524 749.435 566.899C750.366 565.041 752.28 563.66 754.366 562.725C756.453 561.79 758.737 561.242 760.965 560.591C763.379 559.886 765.771 559.048 768.303 558.789C772.555 558.353 776.764 559.579 780.881 560.591C784.152 561.395 787.488 562.075 790.885 562.21C794.283 562.346 797.765 561.914 800.798 560.591C802.615 559.798 804.236 558.704 806.039 557.888C807.915 557.038 809.956 556.503 811.95 555.884C813.945 555.265 815.934 554.542 817.569 553.382C819.095 552.3 820.255 550.879 821.762 549.778C823.705 548.359 826.126 547.54 828.42 546.584C830.715 545.628 833.013 544.439 834.341 542.569C834.806 541.914 835.137 541.194 835.592 540.534C836.047 539.874 836.659 539.254 837.486 538.964C838.005 538.782 838.574 538.742 839.125 538.653C839.401 538.609 839.675 538.552 839.934 538.459C840.193 538.367 840.437 538.238 840.63 538.063C840.823 537.889 840.961 537.674 841.059 537.449C841.156 537.223 841.214 536.987 841.262 536.75C841.359 536.277 841.421 535.786 841.679 535.36C841.883 535.022 842.202 534.742 842.56 534.517C842.917 534.291 843.313 534.115 843.711 533.947C844.109 533.779 844.511 533.617 844.886 533.414C845.262 533.211 845.612 532.965 845.872 532.656C846.155 532.319 846.32 531.919 846.427 531.514C846.534 531.108 846.585 530.694 846.66 530.283C846.736 529.873 846.838 529.461 847.04 529.084C847.242 528.706 847.551 528.361 847.968 528.151C848.311 527.978 848.707 527.905 849.084 527.797C849.272 527.744 849.458 527.68 849.628 527.592C849.799 527.505 849.953 527.391 850.064 527.25C850.266 526.993 850.309 526.666 850.274 526.358C850.239 526.05 850.134 525.751 850.064 525.447C849.872 524.613 849.946 523.747 850.155 522.916C850.363 522.085 850.703 521.283 851.048 520.486C851.392 519.689 851.743 518.891 851.973 518.064C852.203 517.238 852.31 516.376 852.161 515.535C851.983 514.532 851.451 513.602 850.845 512.732C850.238 511.862 849.55 511.033 849.016 510.128C847.802 508.073 847.433 505.706 847.572 503.403C847.71 501.101 848.334 498.841 849.016 496.612C849.384 495.41 849.773 494.204 850.416 493.091C851.059 491.978 851.977 490.953 853.209 490.304C853.878 489.952 854.619 489.719 855.346 489.466C856.072 489.212 856.799 488.932 857.402 488.501C858.192 487.938 858.723 487.154 859.167 486.359C859.611 485.563 859.987 484.735 860.547 483.996C861.803 482.335 863.867 481.263 865.948 480.411C868.028 479.56 870.219 478.859 872.077 477.688C874.073 476.43 875.579 474.696 877.318 473.182C882.237 468.901 888.943 466.447 894.09 462.369C897.913 459.341 900.768 455.502 904.572 452.457C906.87 450.617 909.484 449.091 911.823 447.291C914.162 445.49 916.272 443.333 917.151 440.742C917.892 438.557 917.706 436.22 917.292 433.972C916.878 431.724 916.244 429.498 916.103 427.225C915.943 424.638 916.426 422.056 916.574 419.468C916.721 416.88 916.5 414.18 915.055 411.906C914.22 410.593 913.013 409.482 911.717 408.483C910.42 407.485 909.025 406.586 907.717 405.598C905.603 404.002 903.726 402.182 901.567 400.631C899.408 399.08 896.883 397.781 894.09 397.488C892.701 397.343 891.296 397.451 889.897 397.488C885.039 397.618 880.201 396.894 875.341 396.851C872.911 396.83 870.465 396.981 868.108 397.489C865.75 397.996 863.477 398.87 861.595 400.192C859.173 401.893 857.508 404.241 855.873 406.533C854.239 408.825 852.535 411.159 850.064 412.807C847.356 414.615 843.777 415.464 840.393 414.99C837.009 414.516 833.886 412.692 832.245 410.104C831.871 409.514 831.572 408.891 831.196 408.302C829.572 405.754 826.513 403.978 823.203 403.393C819.893 402.809 816.378 403.362 813.377 404.697C810.057 406.174 807.292 408.651 806.011 411.669C805.37 413.179 805.103 414.808 805.274 416.408C805.446 418.007 806.061 419.575 807.087 420.917C808.247 422.436 809.89 423.631 811.575 424.727C813.26 425.823 815.02 426.849 816.521 428.126C818.423 429.745 819.908 431.843 820.1 434.137C820.196 435.284 819.959 436.46 819.347 437.483C818.735 438.505 817.74 439.368 816.521 439.841C815.513 440.232 814.386 440.354 813.377 440.742C812.224 441.185 811.286 441.948 810.232 442.544C807.906 443.86 804.958 444.335 802.236 443.834C799.513 443.332 797.051 441.86 795.557 439.841Z" fill="#1E90FF"/>
</g>
<g opacity="0.895" filter="url(#filter5_f_1_69)">
<path d="M267.984 121.655C266.273 123.74 263.522 125.172 260.58 125.509C257.638 125.846 254.547 125.084 252.26 123.457C251.498 122.915 250.827 122.286 250.164 121.655C246 117.693 241.935 113.482 236.537 110.841C236.092 110.624 235.637 110.416 235.247 110.131C234.858 109.846 234.533 109.471 234.44 109.039C234.377 108.742 234.425 108.437 234.464 108.137C234.504 107.836 234.535 107.527 234.44 107.237C234.318 106.861 233.992 106.553 233.613 106.338C233.235 106.122 232.803 105.989 232.374 105.86C231.946 105.731 231.512 105.603 231.126 105.399C230.739 105.194 230.398 104.901 230.248 104.533C230.131 104.248 230.135 103.937 230.167 103.635C230.2 103.334 230.259 103.033 230.248 102.731C230.229 102.217 230.003 101.716 229.656 101.297C229.308 100.877 228.844 100.536 228.335 100.265C227.318 99.7226 226.14 99.4587 225.006 99.1266C220.842 97.9062 217.144 95.7005 213.915 93.1321C210.686 90.5637 207.888 87.6268 205.09 84.7086C203.828 83.3927 202.54 82.0596 200.897 81.1041C198.953 79.9739 196.622 79.4361 194.608 78.4008C192.115 77.1195 190.231 75.1463 188.208 73.3551C187.196 72.4594 186.134 71.598 184.939 70.8891C183.743 70.1802 182.407 69.6252 180.981 69.3896C179.945 69.2185 178.872 69.2185 177.836 69.3896C176.543 68.6275 175.128 68.0192 173.643 67.5874C168.951 66.2225 163.805 66.6689 158.968 67.5874C150.153 69.2609 141.828 72.4212 133.207 74.7246C124.587 77.0279 115.317 78.4693 106.557 76.5985C100.921 75.3951 95.7948 72.8846 90.8333 70.2907C85.3069 67.4015 79.766 64.3285 73.5084 62.9215C70.3796 62.218 67.0918 61.9496 63.8949 62.3699C60.698 62.7901 57.5945 63.9225 55.1936 65.7851C54.8265 66.0698 54.4764 66.3707 54.1452 66.6862C53.4379 66.9717 52.7388 67.2722 52.0489 67.5874C41.8471 72.2477 33.9067 79.9814 23.7466 84.7086C21.9515 85.5439 20.0764 86.2915 18.5055 87.412C16.8625 88.5839 15.6254 90.1114 14.2218 91.4943C12.818 92.8772 11.1412 94.1705 9.07148 94.621C7.36877 94.9915 5.57983 94.755 3.83034 94.621C-5.56738 93.9008 -15.3632 96.4032 -22.3754 101.83C-23.6878 102.846 -24.9347 104.002 -25.5201 105.434C-26.1098 106.877 -25.9712 108.467 -25.6189 109.966C-25.2665 111.465 -24.7085 112.93 -24.4718 114.446C-23.9595 117.726 -24.9739 121.076 -24.4718 124.358C-24.1076 126.738 -22.9449 129.002 -21.3134 130.95C-19.6818 132.898 -17.5915 134.542 -15.3076 135.923C-10.74 138.687 -5.45189 140.402 -0.362535 142.38C3.68907 143.955 7.7787 145.742 12.2162 145.985C14.3093 146.099 16.413 145.863 18.5055 145.985C23.2894 146.263 27.7459 148.433 31.0842 151.392C32.1173 152.307 33.0645 153.304 34.2289 154.095C35.5847 155.016 37.189 155.625 38.8097 156.139C40.4304 156.654 42.09 157.085 43.663 157.699C47.3518 159.14 50.5501 161.672 52.0489 164.908C53.2255 167.449 53.3144 170.253 53.314 172.987C53.3137 175.721 53.2468 178.505 54.1452 181.128C54.9421 183.456 56.4904 185.578 58.5103 187.273C60.5303 188.967 63.0127 190.237 65.6758 191.041C66.7185 191.355 67.7894 191.6 68.8205 191.942C71.4684 192.82 73.8108 194.338 75.6013 196.231C77.3918 198.124 78.6356 200.384 79.3027 202.755C80.509 207.043 79.8417 211.529 79.4665 215.929C79.0915 220.329 79.0687 224.958 81.3992 228.888C82.6424 230.984 84.4927 232.765 86.3954 234.457C88.2981 236.149 90.2852 237.789 91.8815 239.701C93.3516 241.462 94.4731 243.434 96.0743 245.108C97.9729 247.093 100.465 248.578 102.807 250.176C105.148 251.773 107.429 253.577 108.653 255.921C109.836 258.186 109.928 260.751 110.75 263.13C111.901 266.465 114.434 269.307 117.063 271.952C119.691 274.598 122.499 277.17 124.376 280.252C124.965 281.218 125.49 282.264 126.473 282.955C127.206 283.47 128.128 283.737 129.039 283.958C129.95 284.178 130.884 284.367 131.714 284.757C132.586 285.167 133.302 285.782 133.953 286.428C134.603 287.074 135.202 287.76 135.907 288.362C137.468 289.695 139.48 290.56 141.498 291.313C143.516 292.066 145.594 292.736 147.438 293.768C149.313 294.819 150.892 296.213 152.679 297.373C157.757 300.67 164.216 301.905 170.499 302.78C176.117 303.562 181.8 304.129 187.27 305.483C189.376 306.004 191.463 306.645 193.644 306.831C194.734 306.925 195.845 306.902 196.913 306.694C197.982 306.487 199.01 306.089 199.849 305.483C200.533 304.989 201.079 304.37 201.721 303.836C202.042 303.569 202.389 303.322 202.777 303.132C203.166 302.942 203.597 302.809 204.042 302.78C204.392 302.756 204.743 302.797 205.092 302.822C205.442 302.848 205.8 302.859 206.138 302.78C206.618 302.667 207.027 302.373 207.29 302.01C207.553 301.647 207.679 301.219 207.704 300.791C207.755 299.937 207.424 299.105 207.186 298.274C206.515 295.92 206.59 293.434 207.186 291.065C208.01 287.798 209.787 284.778 211.383 281.729C212.979 278.681 214.429 275.484 214.524 272.142C214.621 268.733 213.303 265.407 213.067 262.004C212.95 260.302 213.112 258.56 213.834 256.972C214.557 255.384 215.882 253.959 217.669 253.218C218.375 252.925 219.152 252.736 219.765 252.317C220.385 251.893 220.78 251.271 221.066 250.637C221.353 250.002 221.548 249.338 221.862 248.712C222.793 246.855 224.707 245.473 226.793 244.539C228.88 243.604 231.165 243.055 233.392 242.405C235.806 241.699 238.199 240.862 240.73 240.602C244.982 240.167 249.192 241.393 253.309 242.405C256.579 243.208 259.915 243.888 263.313 244.024C266.71 244.16 270.192 243.728 273.225 242.405C275.042 241.612 276.663 240.518 278.466 239.701C280.342 238.852 282.383 238.317 284.378 237.698C286.372 237.079 288.361 236.355 289.997 235.196C291.522 234.114 292.682 232.692 294.189 231.591C296.132 230.172 298.553 229.353 300.847 228.397C303.142 227.442 305.44 226.253 306.768 224.382C307.233 223.727 307.564 223.008 308.019 222.347C308.474 221.687 309.086 221.068 309.913 220.778C310.432 220.596 311.001 220.555 311.552 220.467C311.828 220.422 312.102 220.365 312.361 220.273C312.62 220.18 312.864 220.051 313.058 219.877C313.25 219.703 313.388 219.488 313.486 219.262C313.583 219.037 313.641 218.801 313.689 218.564C313.786 218.09 313.848 217.6 314.106 217.173C314.31 216.835 314.63 216.556 314.987 216.33C315.344 216.104 315.74 215.929 316.138 215.761C316.536 215.593 316.938 215.43 317.313 215.227C317.689 215.025 318.039 214.779 318.299 214.47C318.582 214.133 318.747 213.733 318.854 213.327C318.961 212.922 319.012 212.507 319.087 212.097C319.163 211.686 319.265 211.275 319.467 210.897C319.669 210.519 319.978 210.174 320.395 209.964C320.738 209.792 321.134 209.719 321.511 209.611C321.699 209.557 321.885 209.494 322.055 209.406C322.226 209.318 322.38 209.205 322.492 209.063C322.693 208.807 322.736 208.479 322.701 208.171C322.666 207.863 322.561 207.565 322.492 207.261C322.299 206.427 322.373 205.56 322.582 204.729C322.79 203.898 323.13 203.097 323.475 202.3C323.819 201.503 324.17 200.705 324.4 199.878C324.63 199.051 324.737 198.189 324.588 197.349C324.41 196.346 323.878 195.416 323.272 194.546C322.665 193.676 321.978 192.846 321.443 191.942C320.229 189.886 319.86 187.52 319.999 185.217C320.137 182.914 320.761 180.655 321.443 178.425C321.811 177.223 322.2 176.017 322.843 174.904C323.486 173.791 324.404 172.766 325.636 172.117C326.305 171.765 327.047 171.532 327.773 171.279C328.5 171.026 329.226 170.745 329.829 170.315C330.619 169.752 331.15 168.968 331.594 168.172C332.038 167.377 332.414 166.549 332.974 165.809C334.23 164.149 336.294 163.076 338.375 162.225C340.455 161.373 342.646 160.673 344.504 159.502C346.5 158.244 348.006 156.509 349.745 154.996C354.665 150.715 361.37 148.26 366.517 144.183C370.34 141.154 373.195 137.316 376.999 134.27C379.297 132.431 381.911 130.905 384.25 129.104C386.589 127.304 388.7 125.147 389.578 122.556C390.319 120.371 390.133 118.033 389.719 115.785C389.305 113.537 388.671 111.312 388.53 109.039C388.37 106.451 388.854 103.87 389.001 101.282C389.149 98.6937 388.927 95.9936 387.482 93.7198C386.647 92.4069 385.44 91.2954 384.144 90.2969C382.847 89.2985 381.452 88.3993 380.144 87.412C378.03 85.816 376.153 83.9958 373.994 82.4449C371.835 80.894 369.31 79.5945 366.517 79.3019C365.128 79.1564 363.723 79.2644 362.324 79.3019C357.466 79.432 352.628 78.7071 347.768 78.6646C345.338 78.6434 342.893 78.795 340.535 79.3025C338.177 79.8099 335.904 80.6836 334.022 82.0053C331.6 83.7061 329.935 86.0541 328.3 88.3461C326.666 90.6382 324.962 92.9724 322.492 94.621C319.783 96.4284 316.204 97.2779 312.82 96.8039C309.436 96.3299 306.313 94.5055 304.672 91.9176C304.298 91.3278 303.999 90.7044 303.623 90.1154C301.999 87.5679 298.94 85.7914 295.63 85.2068C292.32 84.6221 288.805 85.1754 285.804 86.5109C282.484 87.9879 279.719 90.4647 278.438 93.483C277.797 94.9921 277.53 96.6215 277.702 98.2211C277.873 99.8208 278.488 101.388 279.514 102.731C280.674 104.249 282.317 105.444 284.002 106.54C285.687 107.636 287.447 108.662 288.948 109.94C290.85 111.558 292.335 113.656 292.527 115.951C292.623 117.098 292.386 118.273 291.774 119.296C291.163 120.319 290.168 121.181 288.948 121.655C287.94 122.046 286.813 122.168 285.804 122.556C284.651 122.998 283.713 123.762 282.659 124.358C280.333 125.674 277.385 126.149 274.663 125.647C271.941 125.146 269.478 123.674 267.984 121.655Z" fill="#8A2BE2"/>
</g>
<path d="M478.088 355.976C541.462 405.8 640.299 402.471 698.848 348.542C757.397 294.614 753.486 210.506 690.112 160.683C626.739 110.859 527.901 114.188 469.352 168.116C410.803 222.045 414.715 306.153 478.088 355.976Z" fill="#FFA500"/>
<g opacity="0.243" filter="url(#filter6_f_1_69)">
<path d="M505.037 472.756C511.19 468.406 518.701 464.561 527.197 461.411C534.684 458.636 543.069 456.374 552.145 455.474C561.22 454.574 571.053 455.132 578.905 457.63C584.851 459.522 589.336 462.381 593.678 465.193C603.291 471.418 613.314 477.898 627.306 481.312C634.303 483.019 642.211 483.878 649.886 483.328C657.562 482.778 664.948 480.733 669.393 477.483C671.218 476.148 672.532 474.64 674.454 473.342C675.415 472.693 676.533 472.096 677.859 471.646C679.185 471.196 680.729 470.896 682.32 470.865C683.552 470.841 684.799 470.977 686.013 470.865C687.548 470.723 688.843 470.203 689.956 469.644C691.07 469.085 692.09 468.463 693.4 468.029C694.734 467.587 696.305 467.364 697.879 467.251C699.452 467.139 701.047 467.13 702.633 467.084C717.734 466.639 731.844 462.72 746.954 462.357C762.864 461.974 777.956 465.536 793.121 468.029C804.522 469.903 816.294 471.198 828.208 471.811C838.639 472.347 849.175 472.359 859.602 471.811C873.453 471.082 887.081 469.367 900.98 468.942C907.929 468.73 914.95 468.844 921.77 469.562C928.589 470.279 935.214 471.614 940.857 473.701C944.15 474.919 947.077 476.378 950.301 477.644C953.525 478.91 957.155 480.002 961.171 480.319C961.889 480.376 962.622 480.408 963.304 480.538C963.644 480.602 963.97 480.691 964.245 480.813C964.52 480.934 964.744 481.089 964.864 481.264C964.966 481.415 964.99 481.577 964.973 481.737C964.956 481.896 964.899 482.053 964.844 482.211C964.789 482.368 964.736 482.525 964.725 482.685C964.714 482.844 964.749 483.007 964.864 483.155C964.996 483.326 965.233 483.473 965.515 483.586C965.798 483.699 966.126 483.781 966.465 483.841C967.143 483.962 967.866 484.002 968.557 484.1C970.073 484.317 971.407 484.82 972.347 485.465C973.287 486.111 973.843 486.893 974.041 487.692C974.436 489.29 973.434 490.9 972.009 492.336C970.584 493.772 968.735 495.087 967.255 496.509C965.775 497.93 964.653 499.51 964.864 501.117C964.927 501.594 965.106 502.065 965.179 502.542C965.253 503.018 965.216 503.511 964.864 503.953C964.366 504.579 963.303 505.035 962.241 505.436C961.18 505.838 960.052 506.226 959.324 506.789C958.784 507.207 958.498 507.695 958.265 508.181C958.033 508.667 957.846 509.162 957.477 509.625C956.85 510.413 955.704 511.083 954.308 511.544C952.913 512.006 951.277 512.265 949.62 512.333C946.308 512.471 943.015 511.863 940.186 510.97C937.357 510.077 934.911 508.907 932.407 507.788C929.903 506.67 927.28 505.582 924.237 504.899C920.172 503.986 915.632 503.85 911.208 503.664C906.784 503.478 902.221 503.204 898.383 502.063C896.463 501.492 894.788 500.72 892.843 500.172C889.824 499.32 886.304 499.049 882.858 499.022C879.412 498.994 875.975 499.197 872.529 499.226C864.467 499.296 856.505 498.423 848.555 497.734C840.605 497.045 832.426 496.539 824.515 497.336C814.968 498.298 806.528 501.082 798.73 504.062C790.933 507.041 783.422 510.302 774.654 512.462C761.957 515.59 747.393 516.202 733.339 515.678C719.285 515.154 705.481 513.555 691.553 512.462C668.968 510.689 645.94 510.249 623.225 511.516C610.272 512.239 596.888 513.495 584.445 511.516C578.356 510.548 572.792 508.835 567.824 506.789C563.535 505.023 559.664 503.009 555.551 501.136C551.438 499.263 547.019 497.513 541.971 496.39C538.356 495.586 534.469 495.115 530.964 494.194C529.211 493.733 527.556 493.156 526.218 492.416C524.879 491.676 523.867 490.764 523.504 489.773C523.149 488.807 523.415 487.814 523.396 486.832C523.386 486.341 523.305 485.846 523.043 485.374C522.781 484.901 522.332 484.45 521.657 484.1C521.006 483.763 520.17 483.533 519.307 483.362C518.444 483.191 517.543 483.075 516.66 482.932C515.777 482.79 514.9 482.619 514.135 482.352C513.37 482.086 512.717 481.714 512.424 481.264C512.226 480.963 512.197 480.639 512.232 480.322C512.268 480.005 512.368 479.69 512.424 479.374C512.66 478.027 512.071 476.645 510.76 475.471C509.449 474.297 507.423 473.336 505.037 472.756Z" fill="white"/>
</g>
<g opacity="0.243" filter="url(#filter7_f_1_69)">
<path d="M191.539 164.603C201.39 170.161 215.222 174.497 230.825 176.916C246.428 179.336 263.744 179.831 280.003 178.322C290.804 177.319 301.054 175.466 311.84 174.436C317.232 173.922 322.776 173.615 328.302 173.739C333.828 173.863 339.35 174.431 344.14 175.578C351.43 177.324 356.664 180.301 364.044 181.98C371.018 183.567 379.428 183.883 386.161 185.639C388.855 186.341 391.188 187.252 393.618 188.104C396.048 188.956 398.644 189.766 401.642 190.212C405.753 190.823 410.311 190.7 414.565 190.289C418.819 189.878 422.886 189.192 427.075 188.679C431.264 188.166 435.691 187.825 439.997 188.131C442.15 188.283 444.248 188.599 446.061 189.104C447.873 189.608 449.392 190.304 450.297 191.126C451.239 191.982 451.497 192.94 452.291 193.821C452.689 194.261 453.229 194.686 454.004 195.03C454.779 195.374 455.807 195.633 456.932 195.699C457.665 195.742 458.41 195.704 459.147 195.674C459.884 195.644 460.638 195.623 461.355 195.699C462.029 195.771 462.64 195.927 463.14 196.126C463.641 196.326 464.035 196.568 464.35 196.824C464.981 197.336 465.302 197.903 465.779 198.443C467.642 200.554 471.822 202.186 476.38 203.41C480.939 204.634 485.968 205.526 490.639 206.676C495.31 207.825 499.745 209.296 502.195 211.302C503.419 212.305 504.11 213.43 503.993 214.553C503.876 215.676 502.925 216.794 501.164 217.65C499.966 218.232 498.437 218.68 496.884 219.095C495.331 219.51 493.731 219.9 492.318 220.393C490.72 220.951 489.396 221.628 488.031 222.283C486.665 222.938 485.228 223.583 483.471 224.052C481.405 224.603 478.954 224.889 476.497 224.931C474.039 224.973 471.576 224.776 469.273 224.419C464.666 223.706 460.769 222.383 457.196 220.985C453.623 219.587 450.256 218.084 446.268 216.893C442.281 215.702 437.519 214.827 432.604 214.906C431.493 214.923 430.389 214.989 429.278 215.018C428.168 215.046 427.036 215.036 425.969 214.906C424.688 214.749 423.565 214.426 422.521 214.081C421.476 213.736 420.479 213.362 419.335 213.077C417.077 212.514 414.384 212.332 411.752 212.278C409.119 212.223 406.472 212.286 403.853 212.162C398.377 211.903 393.333 210.85 388.405 209.829C383.477 208.807 378.383 207.783 372.891 207.589C366.854 207.376 360.92 208.183 354.96 208.635C351.98 208.861 348.935 208.999 345.92 208.875C342.905 208.752 339.907 208.353 337.505 207.589C335.85 207.063 334.527 206.383 333.082 205.76C324.916 202.239 312.626 200.594 300.86 200.943C289.094 201.291 277.912 203.505 268.945 206.674C263.109 208.737 258.154 211.187 252.652 213.402C247.15 215.616 240.904 217.639 233.559 218.564C226.823 219.413 219.61 219.285 212.601 219.003C205.592 218.721 198.55 218.292 191.539 218.564C184.036 218.856 176.864 219.939 169.52 220.638C165.848 220.988 162.105 221.243 158.337 221.251C154.569 221.258 150.765 221.012 147.307 220.393C143.357 219.686 139.997 218.524 136.249 217.65C131.197 216.471 125.515 215.835 119.829 215.362C114.143 214.889 108.378 214.568 102.766 213.962C97.1541 213.356 91.63 212.446 87.1343 210.93C82.6385 209.415 79.2482 207.235 78.7468 204.845C78.5556 203.934 78.7804 203.016 78.7468 202.101C78.7029 200.879 78.2002 199.644 78.7468 198.443C79.4867 196.817 82.1436 195.406 85.4873 194.497C88.8309 193.589 92.8108 193.145 96.7906 192.976C104.75 192.638 112.821 193.345 120.767 192.955C123.749 192.809 126.796 192.486 129.111 191.695C130.268 191.3 131.215 190.79 131.733 190.208C132.25 189.625 132.322 188.968 131.825 188.382C131.317 187.784 130.248 187.286 128.989 186.923C127.731 186.561 126.286 186.324 124.824 186.133C123.362 185.941 121.868 185.792 120.417 185.588C118.965 185.383 117.542 185.119 116.343 184.724C114.248 184.033 113.01 183.005 111.51 182.086C110.76 181.627 109.924 181.186 108.892 180.832C107.86 180.478 106.616 180.215 105.285 180.151C103.818 180.08 102.319 180.252 100.862 180.151C99.7302 180.073 98.6846 179.83 97.8537 179.503C97.0229 179.175 96.3982 178.766 95.9367 178.331C95.0138 177.462 94.7334 176.504 94.2273 175.578C92.5385 172.488 88.3366 169.755 84.4771 167.019C80.6176 164.283 76.9529 161.363 76.5344 158.201C76.3568 156.858 76.7835 155.497 77.8902 154.232C78.997 152.968 80.7912 151.801 83.1693 150.884C84.7647 150.268 86.7128 149.752 88.8856 149.67C89.972 149.629 91.0936 149.701 92.0624 149.909C93.0314 150.116 93.8375 150.462 94.2273 150.884C94.6258 151.314 94.5785 151.792 94.451 152.25C94.3238 152.708 94.1207 153.169 94.2273 153.628C94.4083 154.407 95.481 155.116 96.8588 155.653C98.2368 156.19 99.9102 156.578 101.584 156.945C103.257 157.312 104.962 157.667 106.447 158.153C107.933 158.639 109.204 159.275 109.709 160.03C110.005 160.473 110.026 160.94 110.004 161.4C109.98 161.86 109.916 162.322 110.046 162.779C110.176 163.236 110.517 163.695 111.219 164.052C111.569 164.231 112.008 164.382 112.51 164.481C113.012 164.58 113.578 164.627 114.132 164.603C114.509 164.586 114.875 164.538 115.251 164.518C115.439 164.509 115.631 164.506 115.818 164.518C116.006 164.53 116.19 164.557 116.343 164.603C116.502 164.65 116.624 164.717 116.705 164.791C116.785 164.864 116.823 164.945 116.83 165.026C116.845 165.188 116.73 165.346 116.597 165.498C116.464 165.65 116.308 165.8 116.232 165.959C116.154 166.117 116.163 166.289 116.344 166.432C116.531 166.579 116.888 166.682 117.275 166.728C117.661 166.774 118.076 166.767 118.469 166.733C119.257 166.666 119.978 166.495 120.768 166.432C121.46 166.377 122.185 166.406 122.855 166.498C123.525 166.589 124.142 166.741 124.69 166.925C125.786 167.293 126.599 167.782 127.402 168.261C129.503 169.515 131.653 170.756 134.037 171.92C137.744 173.728 142.028 175.349 146.911 176.591C151.793 177.833 157.288 178.692 162.987 178.951C168.685 179.21 174.586 178.856 179.728 177.807C184.87 176.759 189.206 175 191.539 172.834C192.212 172.21 192.734 171.544 193.751 171.005C194.892 170.4 196.552 170.007 198.17 169.631C199.788 169.255 201.45 168.864 202.597 168.261C203.737 167.662 204.277 166.873 204.066 166.116C203.855 165.358 202.895 164.641 201.455 164.164C200.015 163.688 198.112 163.458 196.279 163.539C194.445 163.62 192.703 164.011 191.539 164.603Z" fill="white"/>
</g>
<g opacity="0.243" filter="url(#filter8_f_1_69)">
<path d="M598.162 468.728C582.866 464.854 567.395 461.196 551.769 457.758C546.683 456.639 541.554 455.536 536.841 453.988C532.128 452.441 527.805 450.409 525.004 447.786C522.958 445.869 521.777 443.691 519.651 441.802C517.323 439.733 513.931 438.084 510.194 436.814C506.456 435.545 502.365 434.635 498.239 433.825C479.354 430.115 458.414 428.409 439.356 431.83C436.304 432.378 433.326 433.053 430.434 433.825C425.111 435.245 419.973 437.016 414.192 437.671C411.302 437.998 408.268 438.032 405.429 437.586C402.589 437.141 399.956 436.192 398.316 434.822C397.215 433.903 396.59 432.833 395.61 431.872C395.12 431.392 394.536 430.936 393.797 430.568C393.058 430.201 392.155 429.924 391.178 429.836C390.002 429.729 388.796 429.896 387.61 429.836C386.315 429.769 385.098 429.43 384.095 428.968C383.092 428.505 382.287 427.923 381.568 427.318C380.13 426.107 378.951 424.748 376.904 423.852C374.804 422.933 372.057 422.621 369.766 421.858C367.759 421.189 366.173 420.199 364.559 419.255C362.944 418.311 361.215 417.377 359.06 416.872C356.764 416.333 354.2 416.328 351.718 416.212C350.477 416.154 349.234 416.065 348.041 415.865C346.848 415.664 345.702 415.348 344.785 414.877C344.163 414.557 343.658 414.173 343.114 413.811C342.57 413.449 341.968 413.101 341.217 412.883C340.145 412.571 338.875 412.556 337.674 412.632C336.473 412.708 335.288 412.868 334.079 412.883C332.162 412.906 330.236 412.547 328.726 411.885C326.405 411.439 324.014 411.105 321.589 410.888C315.098 410.307 308.423 410.569 301.961 409.891C292.705 408.92 284.377 406.079 275.196 404.905C271.866 404.479 268.457 404.277 265.106 403.905C261.756 403.532 258.409 402.974 255.569 401.913C253.768 401.24 252.217 400.383 250.537 399.618C248.858 398.854 246.985 398.166 244.862 397.924C242.525 397.658 240.11 397.954 237.725 397.924C234.493 397.884 231.376 397.244 228.475 396.446C225.574 395.649 222.821 394.687 219.882 393.935C212.639 392.082 204.572 391.57 196.685 390.943C188.058 390.258 179.272 389.37 171.705 386.955C168.787 386.024 166.103 384.881 163.227 383.91C160.351 382.939 157.208 382.131 153.861 381.968C152.083 381.882 150.293 381.98 148.508 381.968C142.715 381.93 137.144 380.736 131.953 379.299C126.762 377.861 121.789 376.161 116.39 374.988C112.278 374.095 107.888 373.513 103.48 373.616C99.072 373.718 94.6353 374.546 91.3564 376.196C89.7169 377.021 88.3851 378.042 87.5515 379.184C86.7181 380.325 86.3903 381.586 86.682 382.808C86.9739 384.03 87.8932 385.209 89.3521 386.134C90.8109 387.059 92.8111 387.721 94.9779 387.952C97.906 388.264 100.931 387.798 103.9 387.952C105.918 388.056 107.865 388.447 109.646 388.988C111.427 389.528 113.052 390.216 114.606 390.943C118.812 392.913 122.565 395.197 127.096 396.927C131.07 398.444 135.54 399.496 139.898 400.638C144.256 401.78 148.596 403.047 152.077 404.905C156.047 407.024 158.723 409.82 162.783 411.885C167.608 414.34 174.121 415.592 180.626 415.874C188.121 416.199 195.59 415.322 203.05 414.805C210.51 414.288 218.371 414.16 225.235 415.874C228.883 416.785 232.131 418.191 235.941 418.866C239.998 419.584 244.357 419.418 248.613 419.402C250.741 419.395 252.878 419.427 254.975 419.631C257.071 419.835 259.135 420.215 260.922 420.86C262.174 421.313 263.268 421.887 264.394 422.434C265.519 422.981 266.698 423.511 268.059 423.852C269.931 424.322 272.046 424.41 274.095 424.333C276.143 424.255 278.161 424.021 280.197 423.875C282.233 423.728 284.325 423.671 286.319 423.945C287.316 424.082 288.28 424.301 289.135 424.619C289.991 424.936 290.735 425.352 291.255 425.847C291.816 426.379 292.107 426.986 292.578 427.545C292.813 427.825 293.097 428.094 293.467 428.324C293.837 428.553 294.299 428.742 294.824 428.838C295.393 428.943 296.007 428.935 296.603 428.904C297.199 428.874 297.795 428.821 298.393 428.838C299.246 428.863 300.077 429.034 300.789 429.298C301.502 429.561 302.099 429.916 302.576 430.312C303.531 431.104 304.001 432.045 304.379 432.977C304.757 433.908 305.063 434.858 305.744 435.734C306.084 436.172 306.518 436.59 307.076 436.952C307.634 437.314 308.318 437.619 309.099 437.813C310.201 438.088 311.446 438.132 312.649 438.081C313.852 438.031 315.038 437.891 316.236 437.813C320.667 437.526 325.385 438.156 328.726 439.808C329.992 440.433 331.033 441.184 332.13 441.902C333.227 442.62 334.408 443.319 335.864 443.797C337.741 444.413 339.945 444.623 342.096 444.815C344.246 445.007 346.45 445.201 348.354 445.791C350.577 446.481 352.181 447.644 353.716 448.777C355.251 449.91 356.846 451.076 359.06 451.775C361.247 452.465 363.823 452.631 366.208 453.071C367.4 453.292 368.564 453.587 369.538 454.031C370.511 454.475 371.285 455.078 371.551 455.764C371.74 456.253 371.669 456.76 371.585 457.259C371.501 457.757 371.406 458.262 371.551 458.755C371.766 459.486 372.505 460.149 373.48 460.65C374.456 461.15 375.656 461.498 376.904 461.747C379.407 462.247 382.099 462.362 384.755 462.414C387.412 462.466 390.088 462.461 392.701 462.735C395.313 463.009 397.902 463.589 399.766 464.648C400.697 465.178 401.431 465.822 401.825 466.532C402.219 467.241 402.264 468.016 401.885 468.728C401.457 469.531 400.521 470.218 399.513 470.838C398.505 471.458 397.402 472.034 396.532 472.717C395.403 473.602 394.699 474.649 394.414 475.724C394.128 476.8 394.254 477.905 394.692 478.964C395.566 481.084 397.653 482.992 400.101 484.683C409.08 490.886 423.3 494.456 437.572 494.656C446.513 494.781 455.565 493.68 464.337 494.656C471.151 495.414 477.318 497.378 483.26 499.39C489.202 501.402 495.152 503.515 501.808 504.628C507.623 505.6 513.776 505.773 519.651 506.623C527.419 507.746 534.501 510.025 541.064 512.606C545.115 514.199 549.037 515.926 553.466 517.166C557.895 518.407 562.974 519.14 567.829 518.589C569.959 518.348 571.974 517.869 574.008 517.441C576.043 517.013 578.146 516.63 580.319 516.595C581.816 516.571 583.304 516.713 584.796 516.79C586.288 516.866 587.829 516.875 589.241 516.595C590.245 516.396 591.154 516.053 591.876 515.616C592.599 515.178 593.134 514.646 593.447 514.077C594.074 512.939 593.788 511.669 592.809 510.611C591.612 509.317 589.461 508.359 587.109 507.73C584.757 507.1 582.192 506.767 579.644 506.456C577.097 506.145 574.524 505.848 572.12 505.283C569.717 504.718 567.461 503.857 566.044 502.634C564.595 501.382 564.098 499.827 562.476 498.645C561.443 497.892 560.024 497.342 558.686 496.759C557.348 496.176 556.031 495.521 555.338 494.656C554.881 494.085 554.721 493.443 554.849 492.822C554.977 492.201 555.388 491.601 556.008 491.08C557.247 490.038 559.294 489.341 561.475 489.059C563.656 488.778 565.959 488.89 568.11 489.234C570.261 489.579 572.276 490.15 574.202 490.787C578.053 492.062 581.68 493.635 585.965 494.357C588.108 494.718 590.404 494.853 592.596 494.599C594.787 494.346 596.865 493.68 598.162 492.661C598.789 492.169 599.223 491.61 599.732 491.077C600.241 490.543 600.852 490.021 601.731 489.67C602.633 489.309 603.74 489.158 604.759 488.913C605.268 488.791 605.763 488.643 606.181 488.439C606.599 488.236 606.939 487.974 607.084 487.675C607.241 487.352 607.166 487.01 607.088 486.678C607.01 486.346 606.932 486.004 607.084 485.681C607.193 485.449 607.416 485.238 607.693 485.055C607.969 484.873 608.299 484.718 608.643 484.575C609.329 484.289 610.084 484.044 610.653 483.686C611.346 483.251 611.714 482.667 611.734 482.084C611.754 481.501 611.439 480.922 610.905 480.422C609.835 479.421 607.959 478.765 606.011 478.35C604.062 477.934 601.995 477.724 599.999 477.386C598.003 477.049 596.016 476.561 594.594 475.708C593.707 475.177 593.071 474.516 592.767 473.81C592.463 473.103 592.492 472.353 592.849 471.654C593.206 470.956 593.891 470.31 594.817 469.801C595.743 469.291 596.907 468.917 598.162 468.728Z" fill="#FF0000"/>
</g>
<g opacity="0.243" filter="url(#filter9_f_1_69)">
<path d="M214.031 129.747C211.812 130.111 209.412 129.57 207.696 128.318C205.98 127.067 204.984 125.131 205.067 123.209C205.099 122.48 205.275 121.738 205.067 121.03C204.879 120.388 204.385 119.834 203.796 119.402C203.208 118.969 202.523 118.643 201.845 118.319C201.166 117.995 200.484 117.666 199.901 117.227C199.318 116.789 198.835 116.227 198.665 115.581C198.477 114.87 198.678 114.131 198.665 113.402C198.645 112.34 198.162 111.31 197.46 110.431C196.759 109.552 195.846 108.81 194.895 108.122C193.944 107.434 192.946 106.792 192.029 106.071C191.112 105.35 190.27 104.541 189.701 103.595C189.085 102.571 188.813 101.427 188.42 100.326C186.879 96.0048 183.409 92.2893 179.154 89.5904C174.9 86.8914 169.889 85.1542 164.755 84.0125C154.486 81.7289 143.675 81.7437 133.358 79.622C128.223 78.5658 123.223 76.9828 117.992 76.353C109.81 75.3679 101.438 76.5609 93.2381 75.6879C89.138 75.2514 85.1056 74.3335 81.3243 72.9159C77.5429 71.4983 74.0511 69.586 70.613 67.6355L43.7221 52.38C42.7763 51.8435 41.8378 51.281 41.0761 50.563C40.3145 49.8451 39.7429 48.9884 39.36 48.0777C38.9772 47.167 38.7759 46.2101 38.5284 45.2661C38.281 44.322 37.9685 43.367 37.3195 42.5729C36.7061 41.8224 35.8249 41.2613 34.9158 40.7744C34.0066 40.2875 33.0507 39.8592 32.1974 39.3039C30.0165 37.8845 28.6711 35.7568 27.0753 33.8555C25.2819 31.7187 23.0883 29.7988 20.4705 28.4087C17.8528 27.0186 14.7942 26.176 11.7091 26.2277C10.8545 26.2421 9.9953 26.3237 9.14801 26.2277C7.9598 26.0932 6.86053 25.6157 5.86399 25.0489C4.86745 24.482 3.94897 23.8204 2.95057 23.2558C1.95224 22.6913 0.84921 22.2187 -0.340276 22.0923C-0.934935 22.0291 -1.54584 22.0548 -2.12196 22.1954C-2.69808 22.336 -3.23849 22.5937 -3.65706 22.9587C-4.30514 23.5238 -4.63041 24.3259 -4.62872 25.1155C-4.62872 25.9051 -4.31648 26.6804 -3.83636 27.3561C-2.87622 28.7076 -1.30179 29.6408 0.184514 30.5864C11.3718 37.7038 19.9881 47.6956 32.1974 53.4697C34.0899 54.3647 36.0566 55.1513 37.8724 56.1547C39.6882 57.1581 41.3725 58.4057 42.4416 60.0078C43.3865 61.4237 43.8291 63.0803 45.0025 64.3665C45.8977 65.3478 47.165 66.045 48.5062 66.5357C49.8473 67.0264 51.2721 67.3255 52.6857 67.6355C55.7277 68.3028 58.8245 69.0597 61.3625 70.6352C62.6315 71.423 63.7422 72.4134 64.4994 73.5845C65.2567 74.7556 65.6481 76.1127 65.4908 77.4427C65.4477 77.8085 65.3638 78.1705 65.3328 78.5373C65.3015 78.904 65.3244 79.2821 65.4908 79.622C65.6408 79.9315 65.9018 80.196 66.2071 80.4071C66.5125 80.6182 66.8619 80.7786 67.2199 80.9174C67.9358 81.1952 68.7053 81.397 69.3324 81.8014C70.1044 82.2993 70.585 83.0579 70.9273 83.829C71.2698 84.6 71.4985 85.4074 71.8934 86.1601C72.5796 87.4677 73.7549 88.5675 75.1434 89.3765C76.5321 90.1855 78.1284 90.7136 79.7672 91.0387C83.0451 91.6888 86.4559 91.5412 89.8206 91.6085C105.51 91.9224 121.155 97.2748 132.078 106.864C134.006 108.557 135.788 110.373 137.828 111.968C139.869 113.563 142.214 114.949 144.883 115.581C146.581 115.984 148.387 116.076 150.005 116.671C151.972 117.395 153.468 118.786 155.127 119.94C159.234 122.797 164.426 124.239 169.546 125.416C174.666 126.594 179.92 127.59 184.579 129.747C189.159 131.868 192.963 135.022 197.384 137.375C204.522 141.174 212.988 142.749 220.433 146.092C226.113 148.643 231.098 152.178 235.8 155.9C238.594 158.111 241.321 160.409 244.454 162.263C247.587 164.118 251.197 165.525 255.007 165.707C255.71 165.74 256.421 165.732 257.107 165.865C257.45 165.931 257.786 166.032 258.088 166.185C258.391 166.338 258.66 166.544 258.849 166.796C259.11 167.145 259.208 167.561 259.353 167.956C259.426 168.154 259.512 168.349 259.636 168.527C259.76 168.705 259.924 168.866 260.129 168.976C260.314 169.075 260.528 169.13 260.745 169.152C260.961 169.175 261.181 169.166 261.397 169.142C261.83 169.096 262.255 168.993 262.69 168.976C263.426 168.946 264.159 169.166 264.76 169.528C265.361 169.889 265.838 170.386 266.209 170.927C266.95 172.01 267.276 173.257 267.813 174.424C269.2 177.443 271.998 179.883 275.218 181.613C278.439 183.344 282.08 184.423 285.74 185.321C288.374 185.967 291.052 186.532 293.548 187.497C296.044 188.462 298.385 189.874 299.825 191.859C300.327 192.551 300.711 193.298 301.106 194.038C303.181 197.927 305.666 201.745 309.299 204.691C311.116 206.164 313.21 207.404 315.524 208.231C317.837 209.058 320.374 209.465 322.875 209.294C323.73 209.235 324.605 209.111 325.436 209.294C326.362 209.498 327.12 210.058 327.997 210.384C328.779 210.674 329.655 210.773 330.502 210.683C331.349 210.593 332.165 210.316 332.864 209.899C334.263 209.067 335.156 207.689 335.391 206.25C335.627 204.811 335.236 203.325 334.443 202.039C333.649 200.753 332.468 199.659 331.125 198.762C328.44 196.969 325.168 195.963 322.054 194.772C318.94 193.582 315.814 192.091 313.911 189.68C312.829 188.308 312.199 186.705 311.091 185.348C310.536 184.67 309.856 184.053 309.021 183.632C308.185 183.211 307.184 182.998 306.228 183.142C305.789 183.207 305.367 183.346 304.925 183.398C304.704 183.424 304.478 183.428 304.259 183.39C304.041 183.353 303.83 183.271 303.667 183.142C303.502 183.01 303.392 182.833 303.336 182.647C303.28 182.46 303.278 182.264 303.306 182.073C303.362 181.691 303.54 181.332 303.667 180.962C303.948 180.144 303.975 179.269 303.787 178.432C303.599 177.595 303.199 176.797 302.655 176.081C301.566 174.651 299.927 173.574 298.156 172.779C294.614 171.187 290.516 170.639 287.02 168.976C284.736 167.889 282.79 166.365 280.794 164.925C278.797 163.485 276.681 162.094 274.215 161.348C272.942 160.963 271.592 160.756 270.374 160.258C268.587 159.528 267.223 158.234 265.903 156.976C264.584 155.718 263.207 154.43 261.41 153.72C259.801 153.084 257.988 152.965 256.225 152.797C254.462 152.629 252.64 152.381 251.166 151.541C249.627 150.664 248.649 149.246 247.792 147.848C246.935 146.451 246.115 144.99 244.763 143.913C243.217 142.681 241.135 142.078 239.102 141.57C237.07 141.061 234.97 140.594 233.239 139.554C231.756 138.664 230.641 137.41 229.397 136.285C225.392 132.661 219.842 130.299 214.031 129.747Z" fill="#EE82EE"/>
</g>
<g opacity="0.243" filter="url(#filter10_f_1_69)">
<path d="M990.024 439.216C978.763 429.218 962.756 423.208 946.487 422.871C943.926 422.818 941.364 422.899 938.803 422.871C926.214 422.734 913.896 419.976 901.668 417.423C895.323 416.098 888.947 414.821 882.461 414.154C878.623 413.759 874.754 413.578 870.936 413.064C863.298 412.035 855.956 409.676 849.167 406.526C845.308 404.735 841.611 402.686 837.643 401.077C828.436 397.345 818.059 396.11 807.862 396.202C797.665 396.293 787.551 397.658 777.458 398.898C771.484 399.632 765.502 400.324 759.531 401.077C756.123 401.508 752.576 401.95 749.287 401.077C745.834 400.161 743.106 397.909 739.849 396.572C738.22 395.903 736.415 395.462 734.612 395.593C733.711 395.659 732.821 395.869 732.029 396.241C731.238 396.613 730.548 397.15 730.079 397.808C729.617 398.457 729.376 399.215 729.36 399.973C729.343 400.732 729.546 401.49 729.92 402.179C730.666 403.557 732.071 404.627 733.667 405.304C735.262 405.981 737.043 406.289 738.819 406.42C740.596 406.55 742.382 406.51 744.165 406.526C764.067 406.703 782.917 413.857 800.508 421.781C802.922 422.869 805.333 423.977 807.883 424.811C810.433 425.645 813.143 426.202 815.874 426.14C817.586 426.102 819.324 425.823 820.996 426.14C822.219 426.372 823.333 426.913 824.36 427.524C825.387 428.136 826.349 428.826 827.398 429.409C831.16 431.499 835.766 432.084 840.204 432.678C850.256 434.024 860.36 435.692 869.656 439.216C872.998 440.484 876.284 442.003 879.9 442.485C884.124 443.049 888.448 442.147 892.705 442.485C895.976 442.745 899.097 443.727 902.233 444.559C905.37 445.392 908.651 446.088 911.913 445.754C912.992 445.644 914.054 445.421 915.137 445.338C916.219 445.255 917.354 445.321 918.315 445.754C919.002 446.064 919.559 446.542 920.147 446.976C920.734 447.409 921.392 447.816 922.157 447.934C922.794 448.032 923.445 447.92 924.086 447.84C924.726 447.76 925.404 447.715 925.998 447.934C926.558 448.139 926.971 448.552 927.338 448.966C927.705 449.38 928.058 449.818 928.559 450.113C928.92 450.326 929.345 450.454 929.778 450.514C930.212 450.573 930.655 450.566 931.092 450.525C931.965 450.441 932.812 450.219 933.681 450.113C934.883 449.967 936.131 450.048 937.268 450.411C938.404 450.774 939.423 451.426 940.084 452.292C940.604 452.974 940.894 453.764 941.364 454.472C941.954 455.359 942.822 456.1 943.815 456.67C944.808 457.239 945.924 457.641 947.074 457.925C949.375 458.492 951.791 458.593 954.17 458.831C964.733 459.887 974.701 463.709 983.622 468.638C987.001 470.505 990.268 472.541 993.866 474.086C996.689 475.298 999.745 476.205 1002.9 476.34C1006.06 476.475 1009.34 475.783 1011.79 474.086C1013.46 472.932 1014.69 471.37 1015.63 469.727C1017.61 466.297 1018.48 462.408 1018.12 458.599C1017.75 454.79 1016.15 451.072 1013.54 447.963C1010.93 444.853 1007.31 442.359 1003.2 440.829C999.084 439.298 994.479 438.734 990.024 439.216Z" fill="white"/>
</g>
<mask id="mask1_1_69" style="mask-type:luminance" maskUnits="userSpaceOnUse" x="426" y="124" width="315" height="270">
<path d="M583.46 393.506C670.057 393.506 740.257 333.229 740.257 258.874C740.257 184.519 670.057 124.243 583.46 124.243C496.863 124.243 426.662 184.519 426.662 258.874C426.662 333.229 496.863 393.506 583.46 393.506Z" fill="white"/>
</mask>
<g mask="url(#mask1_1_69)">
<g filter="url(#filter11_f_1_69)">
<path d="M677.435 371.083C618.855 425.526 519.964 428.886 456.557 378.588C393.15 328.289 389.237 243.378 447.817 188.934C506.397 134.491 494.871 233.75 558.279 284.049C621.686 334.348 736.015 316.639 677.435 371.083Z" fill="black"/>
</g>
</g>
<g opacity="0.1" filter="url(#filter12_f_1_69)">
<path d="M969.162 36.6999C871.3 34.3445 793.166 45.4153 690.81 45.4153C560.617 45.4153 429.622 54.1306 306.142 54.1306C298.278 54.1306 253.012 36.0598 252.018 36.6999C215.282 60.3613 495.857 83.3603 509.107 85.2569C553.144 91.56 927.723 153.501 932.435 152.49C973.795 143.61 986.617 64.0034 969.162 36.6999Z" fill="#FFFF00"/>
</g>
</g>
</g>
<defs>
<filter id="filter0_f_1_69" x="14.5579" y="-101.299" width="1187.79" height="729.52" filterUnits="userSpaceOnUse" color-interpolation-filters="sRGB">
<feFlood flood-opacity="0" result="BackgroundImageFix"/>
<feBlend mode="normal" in="SourceGraphic" in2="BackgroundImageFix" result="shape"/>
<feGaussianBlur stdDeviation="111.271" result="effect1_foregroundBlur_1_69"/>
</filter>
<filter id="filter1_f_1_69" x="409.277" y="63.2132" width="395.265" height="352.649" filterUnits="userSpaceOnUse" color-interpolation-filters="sRGB">
<feFlood flood-opacity="0" result="BackgroundImageFix"/>
<feBlend mode="normal" in="SourceGraphic" in2="BackgroundImageFix" result="shape"/>
<feGaussianBlur stdDeviation="28.9083" result="effect1_foregroundBlur_1_69"/>
</filter>
<filter id="filter2_f_1_69" x="-172.983" y="137.749" width="866.348" height="695.058" filterUnits="userSpaceOnUse" color-interpolation-filters="sRGB">
<feFlood flood-opacity="0" result="BackgroundImageFix"/>
<feBlend mode="normal" in="SourceGraphic" in2="BackgroundImageFix" result="shape"/>
<feGaussianBlur stdDeviation="112.586" result="effect1_foregroundBlur_1_69"/>
</filter>
<filter id="filter3_f_1_69" x="414.774" y="-244.728" width="866.348" height="695.058" filterUnits="userSpaceOnUse" color-interpolation-filters="sRGB">
<feFlood flood-opacity="0" result="BackgroundImageFix"/>
<feBlend mode="normal" in="SourceGraphic" in2="BackgroundImageFix" result="shape"/>
<feGaussianBlur stdDeviation="112.586" result="effect1_foregroundBlur_1_69"/>
</filter>
<filter id="filter4_f_1_69" x="276.478" y="155.184" width="866.348" height="695.058" filterUnits="userSpaceOnUse" color-interpolation-filters="sRGB">
<feFlood flood-opacity="0" result="BackgroundImageFix"/>
<feBlend mode="normal" in="SourceGraphic" in2="BackgroundImageFix" result="shape"/>
<feGaussianBlur stdDeviation="112.586" result="effect1_foregroundBlur_1_69"/>
</filter>
<filter id="filter5_f_1_69" x="-251.095" y="-163.002" width="866.348" height="695.058" filterUnits="userSpaceOnUse" color-interpolation-filters="sRGB">
<feFlood flood-opacity="0" result="BackgroundImageFix"/>
<feBlend mode="normal" in="SourceGraphic" in2="BackgroundImageFix" result="shape"/>
<feGaussianBlur stdDeviation="112.586" result="effect1_foregroundBlur_1_69"/>
</filter>
<filter id="filter6_f_1_69" x="459.739" y="409.773" width="559.687" height="151.371" filterUnits="userSpaceOnUse" color-interpolation-filters="sRGB">
<feFlood flood-opacity="0" result="BackgroundImageFix"/>
<feBlend mode="normal" in="SourceGraphic" in2="BackgroundImageFix" result="shape"/>
<feGaussianBlur stdDeviation="22.6491" result="effect1_foregroundBlur_1_69"/>
</filter>
<filter id="filter7_f_1_69" x="32.4803" y="105.644" width="515.541" height="163.308" filterUnits="userSpaceOnUse" color-interpolation-filters="sRGB">
<feFlood flood-opacity="0" result="BackgroundImageFix"/>
<feBlend mode="normal" in="SourceGraphic" in2="BackgroundImageFix" result="shape"/>
<feGaussianBlur stdDeviation="22.0076" result="effect1_foregroundBlur_1_69"/>
</filter>
<filter id="filter8_f_1_69" x="25.7303" y="312.757" width="646.852" height="266.865" filterUnits="userSpaceOnUse" color-interpolation-filters="sRGB">
<feFlood flood-opacity="0" result="BackgroundImageFix"/>
<feBlend mode="normal" in="SourceGraphic" in2="BackgroundImageFix" result="shape"/>
<feGaussianBlur stdDeviation="30.4236" result="effect1_foregroundBlur_1_69"/>
</filter>
<filter id="filter9_f_1_69" x="-32.5372" y="-5.84879" width="395.905" height="244.472" filterUnits="userSpaceOnUse" color-interpolation-filters="sRGB">
<feFlood flood-opacity="0" result="BackgroundImageFix"/>
<feBlend mode="normal" in="SourceGraphic" in2="BackgroundImageFix" result="shape"/>
<feGaussianBlur stdDeviation="13.9542" result="effect1_foregroundBlur_1_69"/>
</filter>
<filter id="filter10_f_1_69" x="682.304" y="348.516" width="382.948" height="174.895" filterUnits="userSpaceOnUse" color-interpolation-filters="sRGB">
<feFlood flood-opacity="0" result="BackgroundImageFix"/>
<feBlend mode="normal" in="SourceGraphic" in2="BackgroundImageFix" result="shape"/>
<feGaussianBlur stdDeviation="23.5273" result="effect1_foregroundBlur_1_69"/>
</filter>
<filter id="filter11_f_1_69" x="349.313" y="116.078" width="401.332" height="355.147" filterUnits="userSpaceOnUse" color-interpolation-filters="sRGB">
<feFlood flood-opacity="0" result="BackgroundImageFix"/>
<feBlend mode="normal" in="SourceGraphic" in2="BackgroundImageFix" result="shape"/>
<feGaussianBlur stdDeviation="28.5028" result="effect1_foregroundBlur_1_69"/>
</filter>
<filter id="filter12_f_1_69" x="147.216" y="-65.1175" width="931.024" height="319.108" filterUnits="userSpaceOnUse" color-interpolation-filters="sRGB">
<feFlood flood-opacity="0" result="BackgroundImageFix"/>
<feBlend mode="normal" in="SourceGraphic" in2="BackgroundImageFix" result="shape"/>
<feGaussianBlur stdDeviation="50.7443" result="effect1_foregroundBlur_1_69"/>
</filter>
<clipPath id="clip0_1_69">
<rect width="1023" height="607" fill="white"/>
</clipPath>
</defs>
</svg>
